<svg width="30" height="37" viewBox="0 0 30 37" fill="none" xmlns="http://www.w3.org/2000/svg">
<path d="M25.0551 19.4998C25.1069 25.0543 29.9464 26.9027 30 26.9263C29.9591 27.0566 29.2267 29.5604 27.4503 32.1466C25.9147 34.3826 24.3209 36.6103 21.8102 36.6565C19.3432 36.7017 18.5499 35.1991 15.7295 35.1991C12.9098 35.1991 12.0285 36.6103 9.69318 36.7017C7.26973 36.7931 5.4243 34.2839 3.87591 32.0561C0.711949 27.4992 -1.70597 19.1794 1.54068 13.5633C3.15355 10.7744 6.03587 9.00828 9.16437 8.96299C11.5441 8.91777 13.7903 10.5579 15.2451 10.5579C16.699 10.5579 19.4286 8.58549 22.2982 8.87517C23.4995 8.92498 26.8715 9.35859 29.0368 12.516C28.8623 12.6237 25.0132 14.856 25.0551 19.4998V19.4998ZM20.4186 5.86037C21.7053 4.30886 22.5712 2.14903 22.335 0C20.4804 0.0742547 18.2378 1.23115 16.9076 2.7818C15.7154 4.15498 14.6714 6.35283 14.9531 8.45932C17.0202 8.61865 19.132 7.41286 20.4186 5.86037" fill="black"/>
</svg>
