<svg width="228" height="73" viewBox="0 0 228 73" fill="none" xmlns="http://www.w3.org/2000/svg">
<path d="M3.75844 47H19.6464C30.7824 47 38.4144 40.52 38.4144 30.2C38.4144 19.88 30.7824 13.4 19.6464 13.4H3.75844V47ZM13.2624 39.416V20.984H19.2624C24.9744 20.984 28.8144 24.392 28.8144 30.2C28.8144 36.008 24.9744 39.416 19.2624 39.416H13.2624ZM65.8787 13.4V26.024H52.9187V13.4H43.4147V47H52.9187V33.896H65.8787V47H75.3827V13.4H65.8787ZM102.871 47H113.047L105.799 36.44C109.975 34.424 112.375 30.776 112.375 25.832C112.375 18.152 106.615 13.4 97.4466 13.4H82.0866V47H91.5906V38.072H96.7746L102.871 47ZM102.775 25.832C102.775 28.904 100.807 30.728 96.8706 30.728H91.5906V20.888H96.8706C100.807 20.888 102.775 22.712 102.775 25.832ZM133.122 47.672C143.058 47.672 148.914 42.056 148.914 32.024V13.4H139.554V31.736C139.554 37.496 137.154 39.8 133.218 39.8C129.234 39.8 126.834 37.496 126.834 31.736V13.4H117.33V32.024C117.33 42.056 123.186 47.672 133.122 47.672ZM180.024 13.4L170.712 35.288L161.592 13.4H151.32L165.672 47H175.032L189.432 13.4H180.024ZM215.379 47H225.267L210.387 13.4H201.027L186.195 47H195.891L198.531 40.472H212.739L215.379 47ZM201.315 33.464L205.635 22.712L209.955 33.464H201.315Z" fill="white"/>
<path d="M15.9196 69H17.7136L10.3536 52.9H8.67456L1.31455 69H3.08555L5.01755 64.699H13.9876L15.9196 69ZM5.63855 63.319L9.50255 54.671L13.3666 63.319H5.63855ZM24.8159 69.138C28.9329 69.138 30.8189 67.114 30.8189 64.745C30.8189 58.88 20.9059 61.548 20.9059 57.132C20.9059 55.522 22.2169 54.211 25.1609 54.211C26.5869 54.211 28.1969 54.648 29.5769 55.545L30.1519 54.188C28.8639 53.291 26.9779 52.762 25.1609 52.762C21.0669 52.762 19.2269 54.809 19.2269 57.178C19.2269 63.135 29.1399 60.421 29.1399 64.837C29.1399 66.424 27.8289 67.689 24.8159 67.689C22.6999 67.689 20.6529 66.861 19.5029 65.734L18.8359 67.045C20.0319 68.287 22.4009 69.138 24.8159 69.138ZM37.4307 69H39.1327V54.372H44.7907V52.9H31.7727V54.372H37.4307V69ZM60.3667 69L56.4337 63.48C58.7797 62.721 60.1137 60.95 60.1137 58.42C60.1137 54.97 57.6297 52.9 53.5357 52.9H47.5097V69H49.2117V63.894H53.5357C53.9957 63.894 54.4097 63.871 54.8237 63.825L58.5037 69H60.3667ZM53.4897 62.445H49.2117V54.372H53.4897C56.7097 54.372 58.4117 55.844 58.4117 58.42C58.4117 60.95 56.7097 62.445 53.4897 62.445ZM71.1688 69.138C75.9988 69.138 79.6098 65.665 79.6098 60.95C79.6098 56.235 75.9988 52.762 71.1688 52.762C66.2928 52.762 62.7048 56.258 62.7048 60.95C62.7048 65.642 66.2928 69.138 71.1688 69.138ZM71.1688 67.62C67.2818 67.62 64.3838 64.791 64.3838 60.95C64.3838 57.109 67.2818 54.28 71.1688 54.28C75.0328 54.28 77.9078 57.109 77.9078 60.95C77.9078 64.791 75.0328 67.62 71.1688 67.62ZM95.2007 52.9V65.964L84.8277 52.9H83.4247V69H85.1267V55.936L95.4767 69H96.8797V52.9H95.2007ZM109.173 69.138C114.003 69.138 117.614 65.665 117.614 60.95C117.614 56.235 114.003 52.762 109.173 52.762C104.297 52.762 100.709 56.258 100.709 60.95C100.709 65.642 104.297 69.138 109.173 69.138ZM109.173 67.62C105.286 67.62 102.388 64.791 102.388 60.95C102.388 57.109 105.286 54.28 109.173 54.28C113.037 54.28 115.912 57.109 115.912 60.95C115.912 64.791 113.037 67.62 109.173 67.62ZM136.747 52.9L129.824 64.837L122.832 52.9H121.429V69H123.062V56.189L129.387 66.953H130.192L136.517 56.12V69H138.15V52.9H136.747ZM155.355 52.9H153.653L148.133 61.939L142.613 52.9H140.796L147.236 63.434V69H148.915V63.434L155.355 52.9ZM171.007 69.138C173.376 69.138 175.492 68.333 176.918 66.769L175.837 65.688C174.526 67.045 172.916 67.62 171.076 67.62C167.189 67.62 164.268 64.768 164.268 60.95C164.268 57.132 167.189 54.28 171.076 54.28C172.916 54.28 174.526 54.855 175.837 56.189L176.918 55.108C175.492 53.544 173.376 52.762 171.03 52.762C166.177 52.762 162.589 56.235 162.589 60.95C162.589 65.665 166.177 69.138 171.007 69.138ZM180.546 69H191.264V67.528H182.248V52.9H180.546V69ZM200.284 69.138C204.401 69.138 206.885 66.746 206.885 62.123V52.9H205.229V62.054C205.229 65.872 203.435 67.62 200.284 67.62C197.156 67.62 195.362 65.872 195.362 62.054V52.9H193.66V62.123C193.66 66.746 196.167 69.138 200.284 69.138ZM222.157 60.697C223.629 60.099 224.618 58.88 224.618 57.04C224.618 54.418 222.548 52.9 218.96 52.9H212.014V69H219.42C223.445 69 225.469 67.436 225.469 64.699C225.469 62.514 224.227 61.157 222.157 60.697ZM218.845 54.303C221.421 54.303 222.916 55.292 222.916 57.224C222.916 59.156 221.421 60.145 218.845 60.145H213.716V54.303H218.845ZM219.397 67.597H213.716V61.548H219.397C222.226 61.548 223.767 62.468 223.767 64.561C223.767 66.677 222.226 67.597 219.397 67.597Z" fill="white"/>
</svg>
